<svg width="17" height="10" viewBox="0 0 17 10" fill="none" xmlns="http://www.w3.org/2000/svg">
<path d="M16.4132 1.25186C16.4132 0.952574 16.2647 0.658714 16.0036 0.44618C15.4628 0.00159293 14.5787 0.00267727 14.0326 0.447264L6.76901 6.38954C6.30907 6.7669 5.5615 6.7669 5.09891 6.39171L2.41482 4.1948C2.15237 3.9801 1.80244 3.86191 1.43131 3.86191C1.05885 3.86191 0.7076 3.9801 0.445156 4.19589C-0.095639 4.64047 -0.0969645 5.36266 0.445156 5.80616L4.95045 9.4908C5.47667 9.92129 6.39522 9.92021 6.91879 9.4908L16.0036 2.05753C16.2687 1.84066 16.4132 1.55548 16.4132 1.25186Z" fill="white"/>
</svg>
