<svg width="262.889404" height="26.640015" viewBox="0 0 262.889 26.64" fill="none" xmlns="http://www.w3.org/2000/svg" xmlns:xlink="http://www.w3.org/1999/xlink">
	<desc>
			Created with Pixso.
	</desc>
	<defs/>
	<path id="MAYBESMART" d="M137.445 5.20004C137.445 6.16004 137.685 7.01338 138.165 7.76005C138.672 8.50671 139.285 9.16005 140.005 9.72005C140.725 10.28 141.699 10.96 142.925 11.76C144.259 12.6134 145.325 13.36 146.125 14C146.925 14.64 147.605 15.4267 148.165 16.36C148.725 17.2667 149.005 18.32 149.005 19.52C149.005 20.9067 148.632 22.1467 147.885 23.24C147.139 24.3067 146.099 25.1467 144.765 25.76C143.459 26.3467 141.992 26.64 140.365 26.64C139.165 26.64 137.912 26.48 136.605 26.16C135.299 25.8134 134.419 25.44 133.965 25.04C133.832 24.9334 133.725 24.84 133.645 24.76C133.592 24.6534 133.565 24.4934 133.565 24.28L133.445 17.92L133.445 17.88C133.445 17.7734 133.512 17.72 133.645 17.72C133.779 17.6934 133.859 17.7334 133.885 17.84C134.685 19.4667 135.379 20.7867 135.965 21.8C136.579 22.8134 137.339 23.7067 138.245 24.48C139.179 25.2534 140.232 25.64 141.405 25.64C142.472 25.64 143.352 25.36 144.045 24.8C144.739 24.2134 145.085 23.2267 145.085 21.84C145.085 20.6667 144.819 19.64 144.285 18.76C143.779 17.88 143.152 17.1334 142.405 16.52C141.659 15.9067 140.632 15.1734 139.325 14.32C138.045 13.4934 137.045 12.7867 136.325 12.2C135.632 11.6134 135.032 10.9067 134.525 10.08C134.019 9.25338 133.765 8.28004 133.765 7.16005C133.765 5.74671 134.165 4.56005 134.965 3.60004C135.792 2.61338 136.845 1.89338 138.125 1.44004C139.405 0.960043 140.752 0.720043 142.165 0.720043C143.099 0.720043 144.045 0.813377 145.005 1.00005C145.965 1.16005 146.739 1.36005 147.325 1.60004C147.565 1.70671 147.725 1.82671 147.805 1.96004C147.885 2.06671 147.925 2.21338 147.925 2.40004L147.925 8.28004C147.925 8.36004 147.859 8.42671 147.725 8.48005C147.592 8.50671 147.512 8.48005 147.485 8.40004L147.165 7.64005C146.499 5.96004 145.712 4.53338 144.805 3.36004C143.925 2.18671 142.685 1.60004 141.085 1.60004C140.019 1.60004 139.139 1.90671 138.445 2.52004C137.779 3.13338 137.445 4.02671 137.445 5.20004ZM184.391 25.68C184.445 25.68 184.471 25.76 184.471 25.92C184.471 26.08 184.445 26.16 184.391 26.16C183.485 26.16 182.765 26.1467 182.231 26.12L179.271 26.08L176.271 26.12C175.765 26.1467 175.071 26.16 174.191 26.16C174.111 26.16 174.071 26.08 174.071 25.92C174.071 25.76 174.111 25.68 174.191 25.68C175.311 25.68 176.071 25.5467 176.471 25.28C176.871 25.0134 177.071 24.4534 177.071 23.6L177.031 22.92L176.191 6.56005L167.951 25.88C167.898 25.9867 167.791 26.04 167.631 26.04C167.471 26.04 167.365 25.9867 167.311 25.88L157.191 6.64005L156.871 21.08C156.845 22.52 157.125 23.6534 157.711 24.48C158.325 25.28 159.178 25.68 160.271 25.68C160.351 25.68 160.391 25.76 160.391 25.92C160.391 26.08 160.351 26.16 160.271 26.16C159.551 26.16 158.991 26.1467 158.591 26.12L156.391 26.08L153.871 26.12C153.445 26.1467 152.871 26.16 152.151 26.16C152.071 26.16 152.031 26.08 152.031 25.92C152.031 25.76 152.071 25.68 152.151 25.68C153.245 25.68 154.111 25.2667 154.751 24.44C155.391 23.6134 155.725 22.4934 155.751 21.08L156.111 4.52005L156.071 4.48004C155.538 3.49338 154.978 2.77338 154.391 2.32005C153.831 1.86671 153.178 1.64005 152.431 1.64005C152.351 1.64005 152.311 1.56005 152.311 1.40005C152.311 1.24004 152.351 1.16005 152.431 1.16005L154.311 1.20004C154.685 1.22671 155.165 1.24004 155.751 1.24004L157.871 1.20004C158.111 1.17338 158.418 1.16005 158.791 1.16005C159.138 1.16005 159.405 1.28004 159.591 1.52004C159.778 1.76004 160.125 2.33338 160.631 3.24005L169.351 19.6L176.951 2.16005C177.111 1.78671 177.271 1.53338 177.431 1.40005C177.618 1.24004 177.858 1.16005 178.151 1.16005C178.391 1.16005 178.658 1.17338 178.951 1.20004C179.271 1.22671 179.631 1.24004 180.031 1.24004L182.391 1.20004C182.765 1.17338 183.298 1.16005 183.991 1.16005C184.071 1.16005 184.111 1.24004 184.111 1.40005C184.111 1.56005 184.071 1.64005 183.991 1.64005C182.738 1.64005 181.831 1.89338 181.271 2.40004C180.711 2.90671 180.458 3.69338 180.511 4.76004L181.471 22.92C181.525 23.7467 181.618 24.3467 181.751 24.72C181.911 25.0934 182.178 25.3467 182.551 25.48C182.951 25.6134 183.565 25.68 184.391 25.68ZM214.048 25.68C214.182 25.68 214.248 25.76 214.248 25.92C214.248 26.08 214.182 26.16 214.048 26.16C213.515 26.16 212.688 26.1334 211.568 26.08C210.395 26.0267 209.555 26 209.048 26C208.382 26 207.568 26.0267 206.608 26.08C205.701 26.1334 204.982 26.16 204.448 26.16C204.341 26.16 204.288 26.08 204.288 25.92C204.288 25.76 204.341 25.68 204.448 25.68C205.141 25.68 205.635 25.6134 205.928 25.48C206.248 25.32 206.408 25.0534 206.408 24.68C206.408 24.2267 206.141 23.4667 205.608 22.4L201.448 14.2L194.328 14.2L191.488 20.48C191.141 21.2534 190.968 21.9734 190.968 22.64C190.968 23.6 191.301 24.3467 191.968 24.88C192.661 25.4134 193.581 25.68 194.728 25.68C194.861 25.68 194.928 25.76 194.928 25.92C194.928 26.08 194.861 26.16 194.728 26.16C194.248 26.16 193.555 26.1334 192.648 26.08C191.635 26.0267 190.755 26 190.008 26C189.288 26 188.421 26.0267 187.408 26.08C186.501 26.1334 185.768 26.16 185.208 26.16C185.102 26.16 185.048 26.08 185.048 25.92C185.048 25.76 185.102 25.68 185.208 25.68C185.955 25.68 186.581 25.5334 187.088 25.24C187.595 24.92 188.102 24.3734 188.608 23.6C189.115 22.8 189.715 21.6267 190.408 20.08L199.088 1.00005C199.141 0.920044 199.262 0.880045 199.448 0.880045C199.661 0.880045 199.781 0.920044 199.808 1.00005L209.808 20.68C210.742 22.5734 211.515 23.88 212.128 24.6C212.742 25.32 213.382 25.68 214.048 25.68ZM194.848 13.08L200.888 13.08L197.688 6.76004L194.848 13.08ZM242.321 25.68C242.374 25.68 242.401 25.76 242.401 25.92C242.401 26.08 242.374 26.16 242.321 26.16L235.201 26.16C234.614 26.16 233.521 25.0667 231.921 22.88C230.321 20.6667 228.388 17.5867 226.121 13.64C225.908 13.6667 225.601 13.68 225.201 13.68C224.161 13.68 223.428 13.6667 223.001 13.64L223.001 22.92C223.001 23.7467 223.068 24.3467 223.201 24.72C223.334 25.0934 223.588 25.3467 223.961 25.48C224.361 25.6134 224.988 25.68 225.841 25.68C225.894 25.68 225.921 25.76 225.921 25.92C225.921 26.08 225.894 26.16 225.841 26.16C224.961 26.16 224.268 26.1467 223.761 26.12L220.721 26.08L217.801 26.12C217.268 26.1467 216.548 26.16 215.641 26.16C215.561 26.16 215.521 26.08 215.521 25.92C215.521 25.76 215.561 25.68 215.641 25.68C216.494 25.68 217.108 25.6134 217.481 25.48C217.881 25.3467 218.148 25.0934 218.281 24.72C218.441 24.32 218.521 23.72 218.521 22.92L218.521 4.40004C218.521 3.60004 218.454 3.01338 218.321 2.64005C218.188 2.26671 217.921 2.01338 217.521 1.88004C217.121 1.72004 216.508 1.64005 215.681 1.64005C215.628 1.64005 215.601 1.56005 215.601 1.40005C215.601 1.24004 215.628 1.16005 215.681 1.16005L217.801 1.20004C219.028 1.25338 220.001 1.28004 220.721 1.28004C221.494 1.28004 222.348 1.24004 223.281 1.16005C223.574 1.13338 223.948 1.10671 224.401 1.08004C224.881 1.05338 225.441 1.04004 226.081 1.04004C228.534 1.04004 230.428 1.49338 231.761 2.40004C233.121 3.28004 233.801 4.52004 233.801 6.12004C233.801 7.34671 233.428 8.52004 232.681 9.64005C231.934 10.76 230.961 11.6667 229.761 12.36C231.894 15.72 233.681 18.3467 235.121 20.24C236.588 22.1334 237.881 23.52 239.001 24.4C240.148 25.2534 241.254 25.68 242.321 25.68ZM223.001 12.48C223.641 12.5867 224.414 12.64 225.321 12.64C226.281 12.64 227.041 12.4934 227.601 12.2C228.161 11.9067 228.561 11.4 228.801 10.68C229.068 9.96004 229.201 8.94671 229.201 7.64005C229.201 5.45338 228.881 3.94671 228.241 3.12004C227.601 2.29338 226.681 1.88004 225.481 1.88004C224.574 1.88004 223.934 2.08004 223.561 2.48005C223.188 2.88004 223.001 3.54671 223.001 4.48004L223.001 12.48ZM247.529 2.08004C244.356 2.08004 242.076 4.14671 240.689 8.28004C240.663 8.36004 240.583 8.40004 240.449 8.40004C240.316 8.37338 240.249 8.32005 240.249 8.24005C240.356 7.17338 240.476 5.80005 240.609 4.12004C240.743 2.41338 240.809 1.13338 240.809 0.280045C240.809 0.146711 240.876 0.0800457 241.009 0.0800457C241.169 0.0800457 241.249 0.146711 241.249 0.280045C241.249 0.866713 242.009 1.16005 243.529 1.16005C245.823 1.24004 248.503 1.28004 251.569 1.28004C253.143 1.28004 254.809 1.25338 256.569 1.20004L259.289 1.16005C260.303 1.16005 261.036 1.09338 261.489 0.960043C261.969 0.82671 262.276 0.560043 262.409 0.160044C262.436 0.0533791 262.516 4.3869e-05 262.649 4.3869e-05C262.809 4.3869e-05 262.889 0.0533791 262.889 0.160044C262.809 0.960045 262.716 2.24005 262.609 4.00005C262.529 5.76004 262.489 7.17338 262.489 8.24005C262.489 8.32005 262.423 8.36004 262.289 8.36004C262.156 8.36004 262.076 8.32005 262.049 8.24005C261.649 6.18671 260.903 4.65338 259.809 3.64005C258.716 2.60004 257.369 2.08004 255.769 2.08004C254.996 2.08004 254.476 2.25338 254.209 2.60004C253.969 2.92004 253.849 3.54671 253.849 4.48004L253.849 22.92C253.849 23.7467 253.929 24.3467 254.089 24.72C254.249 25.0934 254.556 25.3467 255.009 25.48C255.463 25.6134 256.183 25.68 257.169 25.68C257.249 25.68 257.289 25.76 257.289 25.92C257.289 26.08 257.249 26.16 257.169 26.16C256.209 26.16 255.449 26.1467 254.889 26.12L251.569 26.08L248.329 26.12C247.769 26.1467 246.996 26.16 246.009 26.16C245.929 26.16 245.889 26.08 245.889 25.92C245.889 25.76 245.929 25.68 246.009 25.68C246.969 25.68 247.676 25.6134 248.129 25.48C248.609 25.3467 248.929 25.0934 249.089 24.72C249.276 24.32 249.369 23.72 249.369 22.92L249.369 4.40004C249.369 3.49338 249.249 2.88004 249.009 2.56004C248.769 2.24004 248.276 2.08004 247.529 2.08004Z" fill="#DECBB6" fill-opacity="1.000000" fill-rule="evenodd"/>
	<path id="MAYBESMART" d="M32.36 25.68C32.4134 25.68 32.44 25.76 32.44 25.92C32.44 26.08 32.4134 26.16 32.36 26.16C31.4534 26.16 30.7334 26.1467 30.2 26.12L27.24 26.08L24.24 26.12C23.7334 26.1467 23.04 26.16 22.16 26.16C22.08 26.16 22.04 26.08 22.04 25.92C22.04 25.76 22.08 25.68 22.16 25.68C23.28 25.68 24.04 25.5467 24.44 25.28C24.84 25.0134 25.04 24.4534 25.04 23.6L25 22.92L24.16 6.56005L15.92 25.88C15.8667 25.9867 15.76 26.04 15.6 26.04C15.44 26.04 15.3334 25.9867 15.28 25.88L5.16004 6.64005L4.84004 21.08C4.81337 22.52 5.09337 23.6534 5.68004 24.48C6.29337 25.28 7.14671 25.68 8.24004 25.68C8.32004 25.68 8.36004 25.76 8.36004 25.92C8.36004 26.08 8.32004 26.16 8.24004 26.16C7.52004 26.16 6.96004 26.1467 6.56004 26.12L4.36004 26.08L1.84004 26.12C1.41337 26.1467 0.840039 26.16 0.120039 26.16C0.0400391 26.16 3.91006e-05 26.08 3.91006e-05 25.92C3.91006e-05 25.76 0.0400391 25.68 0.120039 25.68C1.21337 25.68 2.08004 25.2667 2.72004 24.44C3.36004 23.6134 3.69337 22.4934 3.72004 21.08L4.08004 4.52005L4.04004 4.48004C3.50671 3.49338 2.94671 2.77338 2.36004 2.32005C1.80004 1.86671 1.14671 1.64005 0.400039 1.64005C0.320039 1.64005 0.280039 1.56005 0.280039 1.40005C0.280039 1.24004 0.320039 1.16005 0.400039 1.16005L2.28004 1.20004C2.65337 1.22671 3.13337 1.24004 3.72004 1.24004L5.84004 1.20004C6.08004 1.17338 6.38671 1.16005 6.76004 1.16005C7.10671 1.16005 7.37337 1.28004 7.56004 1.52004C7.74671 1.76004 8.09337 2.33338 8.60004 3.24005L17.32 19.6L24.92 2.16005C25.08 1.78671 25.24 1.53338 25.4 1.40005C25.5867 1.24004 25.8267 1.16005 26.12 1.16005C26.36 1.16005 26.6267 1.17338 26.92 1.20004C27.24 1.22671 27.6 1.24004 28 1.24004L30.36 1.20004C30.7334 1.17338 31.2667 1.16005 31.96 1.16005C32.04 1.16005 32.08 1.24004 32.08 1.40005C32.08 1.56005 32.04 1.64005 31.96 1.64005C30.7067 1.64005 29.8 1.89338 29.24 2.40004C28.68 2.90671 28.4267 3.69338 28.48 4.76004L29.44 22.92C29.4934 23.7467 29.5867 24.3467 29.72 24.72C29.88 25.0934 30.1467 25.3467 30.52 25.48C30.92 25.6134 31.5334 25.68 32.36 25.68ZM62.0169 25.68C62.1502 25.68 62.2169 25.76 62.2169 25.92C62.2169 26.08 62.1502 26.16 62.0169 26.16C61.4836 26.16 60.6569 26.1334 59.5369 26.08C58.3636 26.0267 57.5236 26 57.0169 26C56.3503 26 55.5369 26.0267 54.5769 26.08C53.6702 26.1334 52.9502 26.16 52.4169 26.16C52.3102 26.16 52.2569 26.08 52.2569 25.92C52.2569 25.76 52.3102 25.68 52.4169 25.68C53.1102 25.68 53.6036 25.6134 53.8969 25.48C54.2169 25.32 54.3769 25.0534 54.3769 24.68C54.3769 24.2267 54.1102 23.4667 53.5769 22.4L49.4169 14.2L42.2969 14.2L39.4569 20.48C39.1102 21.2534 38.9369 21.9734 38.9369 22.64C38.9369 23.6 39.2702 24.3467 39.9369 24.88C40.6302 25.4134 41.5502 25.68 42.6969 25.68C42.8302 25.68 42.8969 25.76 42.8969 25.92C42.8969 26.08 42.8302 26.16 42.6969 26.16C42.2169 26.16 41.5236 26.1334 40.6169 26.08C39.6036 26.0267 38.7236 26 37.9769 26C37.2569 26 36.3902 26.0267 35.3769 26.08C34.4702 26.1334 33.7369 26.16 33.1769 26.16C33.0702 26.16 33.0169 26.08 33.0169 25.92C33.0169 25.76 33.0702 25.68 33.1769 25.68C33.9236 25.68 34.5502 25.5334 35.0569 25.24C35.5636 24.92 36.0702 24.3734 36.5769 23.6C37.0836 22.8 37.6836 21.6267 38.3769 20.08L47.0569 1.00005C47.1102 0.920044 47.2302 0.880045 47.4169 0.880045C47.6302 0.880045 47.7502 0.920044 47.7769 1.00005L57.7769 20.68C58.7103 22.5734 59.4836 23.88 60.0969 24.6C60.7103 25.32 61.3503 25.68 62.0169 25.68ZM42.8169 13.08L48.8569 13.08L45.6569 6.76004L42.8169 13.08ZM84.8604 1.16005C84.9137 1.16005 84.9404 1.24004 84.9404 1.40005C84.9404 1.56005 84.9137 1.64005 84.8604 1.64005C84.0337 1.64005 83.0204 2.16005 81.8204 3.20005C80.6204 4.21338 79.5537 5.49338 78.6204 7.04004L74.4604 14L74.4604 22.92C74.4604 23.7467 74.527 24.3467 74.6604 24.72C74.7937 25.0934 75.047 25.3467 75.4203 25.48C75.8204 25.6134 76.447 25.68 77.3004 25.68C77.3804 25.68 77.4203 25.76 77.4203 25.92C77.4203 26.08 77.3804 26.16 77.3004 26.16C76.4203 26.16 75.727 26.1467 75.2204 26.12L72.2204 26.08L69.2604 26.12C68.727 26.1467 68.007 26.16 67.1003 26.16C67.047 26.16 67.0204 26.08 67.0204 25.92C67.0204 25.76 67.047 25.68 67.1003 25.68C67.9537 25.68 68.5804 25.6134 68.9804 25.48C69.3804 25.3467 69.647 25.0934 69.7803 24.72C69.9404 24.32 70.0204 23.72 70.0204 22.92L70.0204 14.84L64.1804 5.76004C63.1937 4.21338 62.367 3.14671 61.7004 2.56004C61.0604 1.94671 60.5137 1.64005 60.0604 1.64005C59.9804 1.64005 59.9404 1.56005 59.9404 1.40005C59.9404 1.24004 59.9804 1.16005 60.0604 1.16005L61.3004 1.20004C61.887 1.25338 62.3004 1.28004 62.5404 1.28004C63.4737 1.28004 64.8204 1.25338 66.5804 1.20004L69.2204 1.16005C69.2737 1.16005 69.3004 1.24004 69.3004 1.40005C69.3004 1.56005 69.2737 1.64005 69.2204 1.64005C68.767 1.64005 68.407 1.74671 68.1404 1.96004C67.9004 2.17338 67.7803 2.45338 67.7803 2.80004C67.7803 3.22671 67.967 3.73338 68.3404 4.32005L73.8204 12.96L77.5004 6.68004C78.2204 5.48005 78.5804 4.45338 78.5804 3.60004C78.5804 2.96005 78.3804 2.48005 77.9804 2.16005C77.607 1.81338 77.0603 1.64005 76.3404 1.64005C76.2604 1.64005 76.2204 1.56005 76.2204 1.40005C76.2204 1.24004 76.2604 1.16005 76.3404 1.16005L78.4604 1.20004C79.687 1.25338 80.7803 1.28004 81.7404 1.28004C82.1937 1.28004 82.7404 1.25338 83.3804 1.20004L84.8604 1.16005ZM99.026 12.12C101.266 12.3867 103.039 13.1334 104.346 14.36C105.679 15.5867 106.346 17.1067 106.346 18.92C106.346 20.3067 105.946 21.56 105.146 22.68C104.346 23.8 103.239 24.6934 101.826 25.36C100.413 26 98.8393 26.32 97.106 26.32C96.3593 26.32 95.506 26.28 94.546 26.2C94.1726 26.1734 93.706 26.1467 93.146 26.12C92.6126 26.0934 92.0126 26.08 91.346 26.08L88.426 26.12C87.8926 26.1467 87.1726 26.16 86.266 26.16C86.186 26.16 86.146 26.08 86.146 25.92C86.146 25.76 86.186 25.68 86.266 25.68C87.0393 25.68 87.626 25.6134 88.026 25.48C88.426 25.32 88.706 25.0534 88.866 24.68C89.0526 24.28 89.146 23.6934 89.146 22.92L89.146 4.40004C89.146 3.28004 88.9593 2.54671 88.586 2.20004C88.2126 1.82671 87.4526 1.64005 86.306 1.64005C86.2526 1.64005 86.226 1.56005 86.226 1.40005C86.226 1.24004 86.2526 1.16005 86.306 1.16005L88.426 1.20004C89.6526 1.25338 90.626 1.28004 91.346 1.28004C92.0926 1.28004 92.866 1.24004 93.666 1.16005C93.9326 1.13338 94.3326 1.10671 94.866 1.08004C95.3993 1.05338 95.866 1.04004 96.266 1.04004C98.6926 1.04004 100.573 1.48004 101.906 2.36004C103.239 3.24005 103.906 4.52005 103.906 6.20004C103.906 7.48004 103.479 8.64005 102.626 9.68004C101.799 10.72 100.599 11.5334 99.026 12.12ZM95.666 1.92005C94.8926 1.92005 94.3593 2.10671 94.066 2.48005C93.7726 2.82671 93.626 3.49338 93.626 4.48004L93.626 12.08L95.226 12.12C96.6126 12.12 97.6793 11.6 98.426 10.56C99.1726 9.52005 99.546 8.18671 99.546 6.56005C99.546 5.04004 99.2126 3.89338 98.546 3.12004C97.8793 2.32005 96.9193 1.92005 95.666 1.92005ZM96.426 25.32C99.9193 25.32 101.666 23.5067 101.666 19.88C101.666 17.8267 101.173 16.2 100.186 15C99.1993 13.8 97.706 13.2 95.706 13.2C94.9326 13.2 94.2393 13.2267 93.626 13.28L93.626 22.92C93.626 23.8 93.7993 24.4267 94.146 24.8C94.4926 25.1467 95.2526 25.32 96.426 25.32ZM128.255 19.8C128.255 19.7467 128.308 19.72 128.415 19.72C128.495 19.72 128.562 19.7467 128.615 19.8C128.695 19.8267 128.735 19.8534 128.735 19.88C128.468 21.96 128.335 23.8534 128.335 25.56C128.335 25.7734 128.295 25.9334 128.215 26.04C128.135 26.12 127.975 26.16 127.735 26.16L110.055 26.16C109.975 26.16 109.935 26.08 109.935 25.92C109.935 25.76 109.975 25.68 110.055 25.68C110.908 25.68 111.522 25.6134 111.895 25.48C112.295 25.3467 112.562 25.0934 112.695 24.72C112.828 24.32 112.895 23.72 112.895 22.92L112.895 4.40004C112.895 3.60004 112.828 3.01338 112.695 2.64005C112.562 2.26671 112.295 2.01338 111.895 1.88004C111.495 1.72004 110.882 1.64005 110.055 1.64005C109.975 1.64005 109.935 1.56005 109.935 1.40005C109.935 1.24004 109.975 1.16005 110.055 1.16005L127.015 1.16005C127.282 1.16005 127.415 1.28004 127.415 1.52004L127.495 6.84005C127.495 6.89338 127.415 6.93338 127.255 6.96004C127.122 6.98671 127.042 6.96004 127.015 6.88004C126.588 5.33338 125.868 4.18671 124.855 3.44004C123.842 2.69338 122.508 2.32005 120.855 2.32005L119.655 2.32005C118.855 2.32005 118.268 2.49338 117.895 2.84005C117.522 3.18671 117.335 3.72004 117.335 4.44004L117.335 12.6L120.655 12.6C122.202 12.6 123.388 12.3334 124.215 11.8C125.042 11.2667 125.455 10.52 125.455 9.56005C125.455 9.48005 125.522 9.44004 125.655 9.44004C125.815 9.44004 125.895 9.48005 125.895 9.56005L125.855 13.16L125.895 15.08C125.948 15.9867 125.975 16.7067 125.975 17.24C125.975 17.2934 125.895 17.32 125.735 17.32C125.575 17.32 125.495 17.2934 125.495 17.24C125.495 16.1467 125.068 15.2934 124.215 14.68C123.388 14.04 122.188 13.72 120.615 13.72L117.335 13.72L117.335 22.76C117.335 23.5334 117.482 24.1067 117.775 24.48C118.068 24.8534 118.535 25.04 119.175 25.04L120.495 25.04C122.575 25.04 124.242 24.6134 125.495 23.76C126.748 22.9067 127.668 21.5867 128.255 19.8Z" fill="#FFFFFF" fill-opacity="1.000000" fill-rule="evenodd"/>
</svg>
