<svg width="36" height="35" viewBox="0 0 36 35" fill="none" xmlns="http://www.w3.org/2000/svg">
<path d="M35.2154 34.2643H0.246094V2.125H35.2154V34.2643ZM2.9749 31.5355H32.4866V4.85381H2.9749V31.5355Z" fill="#BBAB8B"/>
<path d="M33.8519 8.59375H1.61133V11.3226H33.8519V8.59375Z" fill="#BBAB8B"/>
<path d="M11.5176 14.1016H7.57422V16.7306H11.5176V14.1016Z" fill="#BBAB8B"/>
<path d="M19.7032 14.1016H15.7598V16.7306H19.7032V14.1016Z" fill="#BBAB8B"/>
<path d="M27.8887 14.1016H23.9453V16.7307H27.8887V14.1016Z" fill="#BBAB8B"/>
<path d="M11.5176 20.2109H7.57422V22.84H11.5176V20.2109Z" fill="#BBAB8B"/>
<path d="M19.7032 20.2109H15.7598V22.84H19.7032V20.2109Z" fill="#BBAB8B"/>
<path d="M27.8887 20.2109H23.9453V22.84H27.8887V20.2109Z" fill="#BBAB8B"/>
<path d="M11.5176 26.3281H7.57422V28.9572H11.5176V26.3281Z" fill="#BBAB8B"/>
<path d="M19.7032 26.3281H15.7598V28.9572H19.7032V26.3281Z" fill="#BBAB8B"/>
<path d="M27.8887 26.3281H23.9453V28.9572H27.8887V26.3281Z" fill="#BBAB8B"/>
<path d="M10.9104 0H8.18164V6.41148H10.9104V0Z" fill="#BBAB8B"/>
<path d="M19.096 0H16.3672V6.41148H19.096V0Z" fill="#BBAB8B"/>
<path d="M27.2818 0H24.553V6.41148H27.2818V0Z" fill="#BBAB8B"/>
</svg>
