<svg width="39" height="37" viewBox="0 0 39 37" fill="none" xmlns="http://www.w3.org/2000/svg">
<path d="M38.6014 36.0533H7.54883V33.3245H35.8726V6.64287H8.05396V3.91406H38.6014V36.0533Z" fill="#BBAB8B"/>
<path d="M33.0332 30.8414H27.2372V28.1126H30.3044V11.8538H14.6741V28.1126H22.1374V30.8414H11.9453V9.125H33.0332V30.8414Z" fill="#BBAB8B"/>
<path d="M23.8538 10.4922H21.125V14.9392H23.8538V10.4922Z" fill="#BBAB8B"/>
<path d="M22.4899 20.5938H13.3105V23.3226H22.4899V20.5938Z" fill="#BBAB8B"/>
<path d="M31.6699 20.5938H27.2383V23.3226H31.6699V20.5938Z" fill="#BBAB8B"/>
<path d="M8.05464 36.0524H4.61847C2.13859 36.0524 0.121094 34.0446 0.121094 31.5765V4.62654C0.121094 2.07541 2.20651 0 4.77007 0C7.33363 0 9.41905 2.07541 9.41905 4.62654V29.8292H4.61847C3.64307 29.8292 2.8499 30.613 2.8499 31.5765C2.8499 32.5401 3.64307 33.3239 4.61847 33.3239H8.05464V36.0524ZM4.77007 2.72881C3.71129 2.72881 2.8499 3.58019 2.8499 4.62654V27.4609C3.39293 27.2286 3.99115 27.1004 4.61847 27.1004H6.69024V4.62654C6.69024 3.58019 5.82885 2.72881 4.77007 2.72881Z" fill="#BBAB8B"/>
</svg>
