<svg width="43" height="31" viewBox="0 0 43 31" fill="none" xmlns="http://www.w3.org/2000/svg">
<path d="M1.79313 15.777L0 13.7204L15.7379 0L31.4759 13.7204L29.6824 15.777L15.7379 3.61991L1.79313 15.777Z" fill="#BBAB8B"/>
<path d="M27.8238 30.7824H3.65234V10.9219H6.38115V28.0536H25.095V14.7498H27.8238V30.7824Z" fill="#BBAB8B"/>
<path d="M40.8788 15.777L26.9343 3.61991L22.2326 7.71888L20.4395 5.66227L26.9343 0L42.6719 13.7204L40.8788 15.777Z" fill="#BBAB8B"/>
<path d="M39.0205 30.7826H25.0957V14.75H27.8245V28.0538H36.2917V14.75H39.0205V30.7826Z" fill="#BBAB8B"/>
<path d="M20.522 30.2761H10.668V17.2891H20.522V30.2761ZM13.3968 27.5472H17.7932V20.0179H13.3968V27.5472Z" fill="#BBAB8B"/>
</svg>
