<svg width="29" height="21" viewBox="0 0 29 21" fill="none" xmlns="http://www.w3.org/2000/svg">
<path fill-rule="evenodd" clip-rule="evenodd" d="M27.9988 5.21566C27.9988 5.21566 27.7222 3.25296 26.8746 2.38882C25.7991 1.25402 24.5935 1.24871 24.0412 1.18287C20.0835 0.894531 14.147 0.894531 14.147 0.894531H14.1346C14.1346 0.894531 8.19814 0.894531 4.24048 1.18287C3.68722 1.24871 2.4826 1.25402 1.40613 2.38882C0.558563 3.25318 0.282816 5.21566 0.282816 5.21566C0.282816 5.21566 0 7.52105 0 9.82535V11.9865C0 14.2916 0.282816 16.5961 0.282816 16.5961C0.282816 16.5961 0.558563 18.5589 1.40613 19.423C2.4826 20.5578 3.8958 20.5222 4.52506 20.6406C6.7876 20.8596 14.1408 20.9272 14.1408 20.9272C14.1408 20.9272 20.0835 20.9184 24.0412 20.63C24.5935 20.5633 25.7991 20.558 26.8746 19.4232C27.7222 18.5589 27.9988 16.5964 27.9988 16.5964C27.9988 16.5964 28.2817 14.2919 28.2817 11.9865V9.82535C28.2817 7.52105 27.9988 5.21566 27.9988 5.21566ZM11.2207 14.6052L11.2199 6.60256L18.8612 10.6177L11.2207 14.6052Z" fill="#A4926F"/>
</svg>
