<svg width="33" height="20" viewBox="0 0 33 20" fill="none" xmlns="http://www.w3.org/2000/svg">
<path d="M28.4012 12.2217C29.4958 13.3091 30.6512 14.3321 31.633 15.5291C32.0667 16.061 32.4773 16.6099 32.7914 17.2272C33.2365 18.1048 32.8334 19.0704 32.06 19.1228L27.2524 19.1206C26.0125 19.2252 25.0233 18.7174 24.1916 17.8548C23.526 17.1651 22.9096 16.4309 22.2696 15.7179C22.0072 15.4265 21.7325 15.1522 21.4045 14.9354C20.7482 14.5021 20.1785 14.6347 19.8035 15.3311C19.4215 16.0395 19.3348 16.8237 19.2973 17.6131C19.2458 18.7649 18.9036 19.0677 17.7665 19.1204C15.3363 19.237 13.0299 18.863 10.8873 17.6157C8.99828 16.5161 7.53352 14.9638 6.25851 13.2064C3.77623 9.78451 1.87519 6.02429 0.166664 2.15877C-0.217928 1.28786 0.0633453 0.820377 1.00784 0.803787C2.57618 0.772835 4.14432 0.774999 5.71453 0.801623C6.35197 0.811131 6.77394 1.18307 7.02009 1.79574C7.86861 3.91848 8.90689 5.93806 10.2101 7.81004C10.5572 8.30841 10.9111 8.80684 11.415 9.15761C11.9725 9.54601 12.397 9.41728 12.6593 8.7854C12.8257 8.38474 12.8986 7.95319 12.9361 7.52413C13.0604 6.04783 13.0767 4.57403 12.8588 3.10292C12.725 2.1848 12.2167 1.59043 11.3163 1.41672C10.8568 1.32813 10.9252 1.15416 11.1477 0.88733C11.5341 0.427123 11.8975 0.140625 12.622 0.140625H18.0552C18.9106 0.312366 19.1005 0.703326 19.2176 1.57895L19.2223 7.71922C19.2129 8.05817 19.3887 9.06416 19.9888 9.2885C20.4691 9.44824 20.7857 9.05728 21.074 8.74743C22.3748 7.34275 23.3033 5.68265 24.1327 3.96366C24.5008 3.20777 24.8173 2.42284 25.1241 1.63849C25.3513 1.05651 25.7079 0.770147 26.3523 0.782803L31.5815 0.787524C31.7366 0.787524 31.8934 0.789819 32.0436 0.815984C32.9247 0.968774 33.1663 1.35442 32.8941 2.22985C32.4653 3.60332 31.6309 4.74794 30.8151 5.8978C29.9431 7.12543 29.0104 8.3111 28.1456 9.54601C27.3511 10.6738 27.4142 11.2423 28.4012 12.2217Z" fill="#A4926F"/>
</svg>
